<svg xmlns="http://www.w3.org/2000/svg" version="1.1" xmlns:xlink="http://www.w3.org/1999/xlink" xmlns:svgjs="http://svgjs.dev/svgjs" width="1500" height="1500" viewBox="0 0 1500 1500"><rect width="1500" height="1500" fill="#ffffff"></rect><g transform="matrix(0.6666666666666666,0,0,0.6666666666666666,249.39393939393938,659.5631836183444)"><svg viewBox="0 0 396 72" data-background-color="#dfdfe5" preserveAspectRatio="xMidYMid meet" height="272" width="1500" xmlns="http://www.w3.org/2000/svg" xmlns:xlink="http://www.w3.org/1999/xlink"><g id="tight-bounds" transform="matrix(1,0,0,1,0.2400000000000091,-0.09126408375436768)"><svg viewBox="0 0 395.52 72.1825281675087" height="72.1825281675087" width="395.52"><g><svg viewBox="0 0 503.5265499880501 91.89375853964631" height="72.1825281675087" width="395.52"><g transform="matrix(1,0,0,1,108.0065499880501,28.39650521717871)"><svg viewBox="0 0 395.52 35.10074810528889" height="35.10074810528889" width="395.52"><g id="textblocktransform"><svg viewBox="0 0 395.52 35.10074810528889" height="35.10074810528889" width="395.52" id="textblock"><g><svg viewBox="0 0 395.52 35.10074810528889" height="35.10074810528889" width="395.52"><g transform="matrix(1,0,0,1,0,0)"><svg width="395.52" viewBox="2.1499999999999995 -40.8 613.49 54.449999999999996" height="35.10074810528889" data-palette-color="#000000"><path d="M2.3 0.1L2.3 0.1Q2-0.8 2.3-1.7L2.3-1.7 6.45-2.3Q6.65-4.2 6.65-8.15L6.65-8.15 6.65-37.6 2.6-38.1Q2.4-38.85 2.6-39.95L2.6-39.95Q3.35-39.9 4.95-39.9L4.95-39.9Q8.15-39.9 13.23-40.18 18.3-40.45 19.05-40.45L19.05-40.45Q28.85-40.45 33.9-35.15 38.95-29.85 38.95-20.9L38.95-20.9Q38.95-11.8 34.2-5.8 29.45 0.2 20.9 0.2L20.9 0.2Q18.05 0.2 13.35 0.13 8.65 0.05 6.6 0.05L6.6 0.05Q3.7 0.05 2.3 0.1ZM19-2.2L19-2.2Q33.1-2.2 33.1-20.6L33.1-20.6Q33.1-28.55 29.43-33.15 25.75-37.75 18.85-38.05L18.85-38.05Q18.25-38.1 17-38.1L17-38.1Q14.35-38.1 12.2-37.7L12.2-37.7Q12-35.8 12-31.65L12-31.65 12-2.35Q12.6-2.35 14.88-2.27 17.15-2.2 19-2.2ZM80-24.3L69.85 2.2 68.8 2.2 62.2-16.15 55.35 2.2 54.3 2.2 44.7-24.25 41.55-24.85Q41.35-25.65 41.55-26.85L41.55-26.85Q44.3-26.65 47.5-26.65L47.5-26.65Q50.35-26.65 53.55-26.8L53.55-26.8Q53.85-25.8 53.55-24.85L53.55-24.85 49.7-24.25 53.7-12.9Q55.45-7.9 56-5.65L56-5.65 56.1-5.65Q57.3-9.95 58.45-12.65L58.45-12.65 61-19.5 59.3-24.25 56.15-24.85Q55.95-25.65 56.15-26.85L56.15-26.85Q58.9-26.65 62.1-26.65L62.1-26.65Q64.95-26.65 68.15-26.8L68.15-26.8Q68.45-25.8 68.15-24.85L68.15-24.85 64.3-24.25 68.15-12.9Q69.9-7.9 70.45-5.65L70.45-5.65 70.55-5.65Q71.75-9.95 72.9-12.65L72.9-12.65 77.25-24.45 73.35-24.85Q73.15-25.65 73.35-26.85L73.35-26.85Q76.1-26.65 78.5-26.65L78.5-26.65Q80.55-26.65 83.75-26.8L83.75-26.8Q84.05-25.8 83.75-24.85L83.75-24.85 80-24.3ZM94 7.4L94 7.4 97.2-0.15 87.5-24.05 83.6-24.85Q83.35-25.85 83.6-26.85L83.6-26.85Q86.35-26.65 90.3-26.65L90.3-26.65Q93.85-26.65 97.05-26.8L97.05-26.8Q97.35-25.8 97.05-24.85L97.05-24.85 92.75-24.15 97.5-12.9Q98.5-10.45 99.6-6.05L99.6-6.05 99.7-6.05Q100.55-9.05 102.05-12.65L102.05-12.65 106.4-24.3 102.5-24.85Q102.3-25.65 102.5-26.85L102.5-26.85Q105.25-26.65 107.85-26.65L107.85-26.65Q110.05-26.65 113.3-26.8L113.3-26.8Q113.6-25.8 113.3-24.85L113.3-24.85 109.35-24.3 96.15 8Q95.1 10.5 93.8 11.75 92.5 13 90.35 13L90.35 13Q88.65 13 87.72 12.58 86.8 12.15 85.85 10.95L85.85 10.95Q86.15 8.2 88.7 6.55L88.7 6.55Q90.75 8.85 92.2 8.85L92.2 8.85Q93.45 8.85 94 7.4ZM127.04-40.8L127.04-40.8Q134.49-40.8 134.49-34.9L134.49-34.9Q133.44-33.8 129.49-33.85L129.49-33.85Q128.99-39.1 126.94-39.1L126.94-39.1Q125.04-39.1 124.27-36.08 123.49-33.05 123.49-25.05L123.49-25.05 130.54-25.05Q130.84-24.1 130.54-23.1L130.54-23.1 123.49-22.05 123.49-2.8 129.54-1.8Q129.84-0.8 129.54 0.2L129.54 0.2Q126.39 0.05 121.79 0.05L121.79 0.05Q119.09 0.05 114.89 0.15L114.89 0.15Q114.49-0.75 114.89-1.8L114.89-1.8 118.54-2.6Q118.74-5.25 118.74-8.7L118.74-8.7 118.74-22.55 115.19-23.1Q114.89-24.1 115.19-25.05L115.19-25.05 118.74-25.05 118.74-28.45Q118.74-31.45 119.59-34.18 120.44-36.9 122.42-38.85 124.39-40.8 127.04-40.8ZM133.79-13.3L133.79-13.3Q133.79-16.3 134.67-18.93 135.54-21.55 137.19-23.5 138.84-25.45 141.17-26.58 143.49-27.7 146.39-27.7L146.39-27.7Q149.24-27.7 151.59-26.58 153.94-25.45 155.62-23.5 157.29-21.55 158.19-18.93 159.09-16.3 159.09-13.3L159.09-13.3Q159.09-10.2 158.17-7.6 157.24-5 155.57-3.08 153.89-1.15 151.54-0.08 149.19 1 146.39 1L146.39 1Q143.44 1 141.12-0.05 138.79-1.1 137.17-3 135.54-4.9 134.67-7.53 133.79-10.15 133.79-13.3ZM141.09-22.5L141.09-22.5Q138.94-19.45 138.94-13.3L138.94-13.3Q138.94-10.25 139.52-7.95 140.09-5.65 141.09-4.13 142.09-2.6 143.44-1.85 144.79-1.1 146.39-1.1L146.39-1.1Q147.94-1.1 149.34-1.85 150.74-2.6 151.74-4.13 152.74-5.65 153.34-7.95 153.94-10.25 153.94-13.3L153.94-13.3Q153.94-16.35 153.34-18.68 152.74-21 151.72-22.53 150.69-24.05 149.32-24.83 147.94-25.6 146.39-25.6L146.39-25.6Q143.29-25.6 141.09-22.5ZM171.89-26.7L171.89-26.7 171.79-21.55Q173.04-23.85 175.26-25.78 177.49-27.7 179.49-27.7L179.49-27.7Q181.04-27.7 182.24-27.35L182.24-27.35Q182.64-26.7 182.64-25.65L182.64-25.65Q182.64-24 181.94-22.35L181.94-22.35Q180.14-22.85 178.49-22.85L178.49-22.85Q174.39-22.85 171.74-18.85L171.74-18.85 171.64-10.1 171.64-2.55 177.19-1.8Q177.39-1 177.19 0.2L177.19 0.2Q174.04 0.05 169.99 0.05L169.99 0.05Q166.94 0.05 162.74 0.15L162.74 0.15Q162.44-0.8 162.74-1.8L162.74-1.8 166.69-2.35Q166.89-5.1 166.89-8.7L166.89-8.7 166.89-22.4Q166.89-23.4 166.74-24.25L166.74-24.25 162.79-24.75Q162.59-25.5 162.79-26.65L162.79-26.65Q166.24-26.9 171.39-27.7L171.39-27.7Q171.84-27.2 171.89-26.7ZM197.88-39.95L197.88-39.95Q199.93-39.95 204.41-40.15 208.88-40.35 212.53-40.35L212.53-40.35Q220.28-40.35 223.58-37.33 226.88-34.3 226.88-28.9L226.88-28.9Q226.88-24.1 222.61-20.85 218.33-17.6 212.43-17.6L212.43-17.6Q209.38-17.6 207.28-17.9L207.28-17.9 207.28-2.2 211.83-1.7Q212.03-0.95 211.83 0.15L211.83 0.15Q208.68 0 204.73 0L204.73 0Q201.78 0 197.58 0.1L197.58 0.1Q197.28-0.8 197.58-1.7L197.58-1.7 201.73-2.3Q201.93-4.2 201.93-8.15L201.93-8.15 201.93-37.6 197.88-38.1Q197.68-38.85 197.88-39.95ZM207.28-31.65L207.28-31.65 207.28-19.95Q208.83-19.75 211.78-19.75L211.78-19.75Q214.38-19.75 216.26-20.63 218.13-21.5 219.08-22.98 220.03-24.45 220.43-25.95 220.83-27.45 220.83-29.15L220.83-29.15Q220.83-33.5 218.63-35.88 216.43-38.25 211.28-38.25L211.28-38.25Q209.43-38.25 207.58-37.9L207.58-37.9Q207.28-35.05 207.28-31.65ZM238.98-26.7L238.98-26.7 238.88-21.55Q240.13-23.85 242.36-25.78 244.58-27.7 246.58-27.7L246.58-27.7Q248.13-27.7 249.33-27.35L249.33-27.35Q249.73-26.7 249.73-25.65L249.73-25.65Q249.73-24 249.03-22.35L249.03-22.35Q247.23-22.85 245.58-22.85L245.58-22.85Q241.48-22.85 238.83-18.85L238.83-18.85 238.73-10.1 238.73-2.55 244.28-1.8Q244.48-1 244.28 0.2L244.28 0.2Q241.13 0.05 237.08 0.05L237.08 0.05Q234.03 0.05 229.83 0.15L229.83 0.15Q229.53-0.8 229.83-1.8L229.83-1.8 233.78-2.35Q233.98-5.1 233.98-8.7L233.98-8.7 233.98-22.4Q233.98-23.4 233.83-24.25L233.83-24.25 229.88-24.75Q229.68-25.5 229.88-26.65L229.88-26.65Q233.33-26.9 238.48-27.7L238.48-27.7Q238.93-27.2 238.98-26.7ZM252.03-13.3L252.03-13.3Q252.03-16.3 252.9-18.93 253.78-21.55 255.43-23.5 257.08-25.45 259.4-26.58 261.73-27.7 264.63-27.7L264.63-27.7Q267.48-27.7 269.83-26.58 272.18-25.45 273.85-23.5 275.53-21.55 276.43-18.93 277.33-16.3 277.33-13.3L277.33-13.3Q277.33-10.2 276.4-7.6 275.48-5 273.8-3.08 272.13-1.15 269.78-0.08 267.43 1 264.63 1L264.63 1Q261.68 1 259.35-0.05 257.03-1.1 255.4-3 253.78-4.9 252.9-7.53 252.03-10.15 252.03-13.3ZM259.33-22.5L259.33-22.5Q257.18-19.45 257.18-13.3L257.18-13.3Q257.18-10.25 257.75-7.95 258.33-5.65 259.33-4.13 260.33-2.6 261.68-1.85 263.03-1.1 264.63-1.1L264.63-1.1Q266.18-1.1 267.58-1.85 268.98-2.6 269.98-4.13 270.98-5.65 271.58-7.95 272.18-10.25 272.18-13.3L272.18-13.3Q272.18-16.35 271.58-18.68 270.98-21 269.95-22.53 268.93-24.05 267.55-24.83 266.18-25.6 264.63-25.6L264.63-25.6Q261.53-25.6 259.33-22.5ZM296.38-1.7L296.38-1.7Q299.68-1.7 301.6-4.9 303.53-8.1 303.53-14.55L303.53-14.55Q303.53-19.5 301.7-22.1 299.88-24.7 296.88-24.7L296.88-24.7Q292.48-24.7 289.28-20.45L289.28-20.45 289.28-4.9Q292.08-1.7 296.38-1.7ZM284.53 4.75L284.53-19.55Q284.53-22.9 284.38-24.25L284.38-24.25 280.43-24.75Q280.28-25.55 280.43-26.65L280.43-26.65Q283.93-26.9 289.03-27.7L289.03-27.7Q289.48-27.25 289.53-26.7L289.53-26.7Q289.28-24.95 289.28-23L289.28-23Q293.33-27.7 298.58-27.7L298.58-27.7Q302.98-27.7 305.9-24.05 308.83-20.4 308.83-14.4L308.83-14.4Q308.83-7.45 305-3.23 301.18 1 295.98 1L295.98 1Q292.33 1 289.28-1.35L289.28-1.35 289.28 10.9 294.33 11.65Q294.53 12.45 294.33 13.65L294.33 13.65Q291.18 13.5 287.38 13.5L287.38 13.5Q284.58 13.5 280.38 13.6L280.38 13.6Q280.08 12.6 280.38 11.65L280.38 11.65 284.33 11.1Q284.53 8.35 284.53 4.75L284.53 4.75ZM334.07-14.1L334.07-14.1 318.37-14.1Q317.92-1.35 326.02-1.35L326.02-1.35Q329.47-1.35 333.07-4.4L333.07-4.4Q333.82-3.95 334.22-2.85L334.22-2.85Q330.77 1 325.47 1L325.47 1Q313.27 1 313.27-13.35L313.27-13.35Q313.27-20.15 316.87-23.93 320.47-27.7 325.27-27.7L325.27-27.7Q330.52-27.7 332.82-24.05 335.12-20.4 335.12-14.55L335.12-14.55Q334.62-14.15 334.07-14.1ZM325.17-25.7L325.17-25.7Q322.57-25.7 320.75-23 318.92-20.3 318.52-16.1L318.52-16.1 324.72-16.1Q328.42-16.1 330.02-16.55L330.02-16.55Q330.02-20.65 328.77-23.18 327.52-25.7 325.17-25.7ZM347.92-26.7L347.92-26.7 347.82-21.55Q349.07-23.85 351.3-25.78 353.52-27.7 355.52-27.7L355.52-27.7Q357.07-27.7 358.27-27.35L358.27-27.35Q358.67-26.7 358.67-25.65L358.67-25.65Q358.67-24 357.97-22.35L357.97-22.35Q356.17-22.85 354.52-22.85L354.52-22.85Q350.42-22.85 347.77-18.85L347.77-18.85 347.67-10.1 347.67-2.55 353.22-1.8Q353.42-1 353.22 0.2L353.22 0.2Q350.07 0.05 346.02 0.05L346.02 0.05Q342.97 0.05 338.77 0.15L338.77 0.15Q338.47-0.8 338.77-1.8L338.77-1.8 342.72-2.35Q342.92-5.1 342.92-8.7L342.92-8.7 342.92-22.4Q342.92-23.4 342.77-24.25L342.77-24.25 338.82-24.75Q338.62-25.5 338.82-26.65L338.82-26.65Q342.27-26.9 347.42-27.7L347.42-27.7Q347.87-27.2 347.92-26.7ZM368.52-32.7L368.52-32.7 368.52-25.55 375.57-25.55Q375.67-24.95 375.67-24.65L375.67-24.65Q375.67-24.2 375.57-23.6L375.57-23.6 368.52-22.55 368.52-8.8Q368.52-5.1 369.19-3.58 369.87-2.05 371.32-2.05L371.32-2.05Q372.62-2.05 375.37-3.1L375.37-3.1Q375.87-2.65 376.07-1.4L376.07-1.4Q374.57-0.5 373.79-0.08 373.02 0.35 371.84 0.68 370.67 1 369.37 1L369.37 1Q366.87 1 365.29-0.93 363.72-2.85 363.72-6.8L363.72-6.8 363.72-23.15 360.22-23.6Q360.12-24.1 360.12-24.45L360.12-24.45Q360.12-24.85 360.22-25.55L360.22-25.55Q361.62-25.8 362.64-26.43 363.67-27.05 364.37-28.18 365.07-29.3 365.44-30.18 365.82-31.05 366.37-32.7L366.37-32.7Q366.82-32.85 367.47-32.85L367.47-32.85Q368.07-32.85 368.52-32.7ZM387.17 7.4L387.17 7.4 390.37-0.15 380.67-24.05 376.77-24.85Q376.52-25.85 376.77-26.85L376.77-26.85Q379.52-26.65 383.47-26.65L383.47-26.65Q387.02-26.65 390.22-26.8L390.22-26.8Q390.52-25.8 390.22-24.85L390.22-24.85 385.92-24.15 390.67-12.9Q391.67-10.45 392.77-6.05L392.77-6.05 392.87-6.05Q393.72-9.05 395.22-12.65L395.22-12.65 399.57-24.3 395.67-24.85Q395.47-25.65 395.67-26.85L395.67-26.85Q398.42-26.65 401.02-26.65L401.02-26.65Q403.22-26.65 406.47-26.8L406.47-26.8Q406.77-25.8 406.47-24.85L406.47-24.85 402.52-24.3 389.32 8Q388.27 10.5 386.97 11.75 385.67 13 383.52 13L383.52 13Q381.82 13 380.89 12.58 379.97 12.15 379.02 10.95L379.02 10.95Q379.32 8.2 381.87 6.55L381.87 6.55Q383.92 8.85 385.37 8.85L385.37 8.85Q386.62 8.85 387.17 7.4ZM425.21-11.55L426.81-3.45Q429.71-1.45 434.96-1.45L434.96-1.45Q438.51-1.45 440.29-3.5 442.06-5.55 442.06-8.4L442.06-8.4Q442.06-9.9 441.81-10.93 441.56-11.95 440.74-13.25 439.91-14.55 438.11-15.85 436.31-17.15 433.41-18.6L433.41-18.6Q430.01-20.3 427.91-21.8 425.81-23.3 424.76-24.9 423.71-26.5 423.36-27.95 423.01-29.4 423.01-31.55L423.01-31.55Q423.01-35.95 426.54-38.38 430.06-40.8 434.86-40.8L434.86-40.8Q440.81-40.8 446.36-37.8L446.36-37.8 446.36-28.2Q444.66-27.9 443.51-28.2L443.51-28.2 441.91-36.85Q438.71-38.6 434.76-38.6L434.76-38.6Q432.11-38.6 430.29-37.02 428.46-35.45 428.46-32.6L428.46-32.6Q428.46-31 428.66-30.1 428.86-29.2 429.66-27.98 430.46-26.75 432.31-25.53 434.16-24.3 437.26-22.8L437.26-22.8Q447.96-17.6 447.96-10.4L447.96-10.4Q447.96-5.3 444.06-2.15 440.16 1 433.86 1L433.86 1Q427.61 1 422.36-1.95L422.36-1.95 422.36-11.55Q424.06-11.85 425.21-11.55L425.21-11.55ZM474.36-14.1L474.36-14.1 458.66-14.1Q458.21-1.35 466.31-1.35L466.31-1.35Q469.76-1.35 473.36-4.4L473.36-4.4Q474.11-3.95 474.51-2.85L474.51-2.85Q471.06 1 465.76 1L465.76 1Q453.56 1 453.56-13.35L453.56-13.35Q453.56-20.15 457.16-23.93 460.76-27.7 465.56-27.7L465.56-27.7Q470.81-27.7 473.11-24.05 475.41-20.4 475.41-14.55L475.41-14.55Q474.91-14.15 474.36-14.1ZM465.46-25.7L465.46-25.7Q462.86-25.7 461.03-23 459.21-20.3 458.81-16.1L458.81-16.1 465.01-16.1Q468.71-16.1 470.31-16.55L470.31-16.55Q470.31-20.65 469.06-23.18 467.81-25.7 465.46-25.7ZM488.21-26.7L488.21-26.7 488.11-21.55Q489.36-23.85 491.58-25.78 493.81-27.7 495.81-27.7L495.81-27.7Q497.36-27.7 498.56-27.35L498.56-27.35Q498.96-26.7 498.96-25.65L498.96-25.65Q498.96-24 498.26-22.35L498.26-22.35Q496.46-22.85 494.81-22.85L494.81-22.85Q490.71-22.85 488.06-18.85L488.06-18.85 487.96-10.1 487.96-2.55 493.51-1.8Q493.71-1 493.51 0.2L493.51 0.2Q490.36 0.05 486.31 0.05L486.31 0.05Q483.26 0.05 479.06 0.15L479.06 0.15Q478.76-0.8 479.06-1.8L479.06-1.8 483.01-2.35Q483.21-5.1 483.21-8.7L483.21-8.7 483.21-22.4Q483.21-23.4 483.06-24.25L483.06-24.25 479.11-24.75Q478.91-25.5 479.11-26.65L479.11-26.65Q482.56-26.9 487.71-27.7L487.71-27.7Q488.16-27.2 488.21-26.7ZM524-24.3L513.65 2.2 512.6 2.2 502.25-24.25 499.1-24.85Q498.9-25.65 499.1-26.85L499.1-26.85Q501.85-26.65 505.05-26.65L505.05-26.65Q507.9-26.65 511.1-26.8L511.1-26.8Q511.4-25.8 511.1-24.85L511.1-24.85 507.95-24.25 512-12.75Q513.75-7.75 514.3-5.5L514.3-5.5 514.4-5.5Q515.6-9.8 516.75-12.5L516.75-12.5 521.05-24.45 517.15-24.85Q516.95-25.65 517.15-26.85L517.15-26.85Q519.9-26.65 522.4-26.65L522.4-26.65Q524.5-26.65 527.75-26.8L527.75-26.8Q528.05-25.8 527.75-24.85L527.75-24.85 524-24.3ZM538-18.6L538-18.6 538-2.55 542.05-1.8Q542.1-1.55 542.13-1.35 542.15-1.15 542.15-0.9L542.15-0.9Q542.15-0.65 542.13-0.38 542.1-0.1 542.05 0.2L542.05 0.2Q538.9 0.05 535.6 0.05L535.6 0.05Q534.45 0.05 532.83 0.08 531.2 0.1 529.1 0.15L529.1 0.15Q528.95-0.3 528.95-0.8L528.95-0.8Q528.95-1.25 529.1-1.8L529.1-1.8 533.05-2.35Q533.15-3.75 533.2-5.33 533.25-6.9 533.25-8.7L533.25-8.7 533.25-19.35Q533.25-22.65 533.1-24.25L533.1-24.25 529.15-24.75Q529.05-25 529.05-25.6L529.05-25.6Q529.05-25.85 529.05-26.1 529.05-26.35 529.15-26.65L529.15-26.65Q532.55-26.85 537.75-27.7L537.75-27.7Q538.2-27.2 538.25-26.7L538.25-26.7Q538-25.3 538-18.6ZM530.7-36.45L530.7-36.45Q530.6-36.7 530.6-36.98 530.6-37.25 530.6-37.5L530.6-37.5Q530.6-38.85 531.73-39.68 532.85-40.5 534.5-40.5L534.5-40.5Q536.05-40.5 537.02-39.58 538-38.65 538-37.05L538-37.05Q538-35.75 536.88-34.95 535.75-34.15 534-34.15L534-34.15Q532.8-34.15 531.88-34.75 530.95-35.35 530.7-36.45ZM567-20.3L567-20.3Q565.95-19.2 562.05-19.25L562.05-19.25Q561.25-25.55 557.5-25.55L557.5-25.55Q554.55-25.55 552.5-22.15 550.45-18.75 550.45-13.2L550.45-13.2Q550.45-7.5 552.25-4.42 554.05-1.35 557.65-1.35L557.65-1.35Q561.45-1.35 565.1-4.45L565.1-4.45Q565.85-4 566.25-2.9L566.25-2.9Q562.6 1 557.1 1L557.1 1Q551.85 1 548.5-2.63 545.15-6.25 545.15-13.3L545.15-13.3Q545.15-20.05 548.87-23.88 552.6-27.7 557.4-27.7L557.4-27.7Q561.2-27.7 564.1-25.8 567-23.9 567-20.3ZM591.54-14.1L591.54-14.1 575.84-14.1Q575.39-1.35 583.49-1.35L583.49-1.35Q586.94-1.35 590.54-4.4L590.54-4.4Q591.29-3.95 591.69-2.85L591.69-2.85Q588.24 1 582.94 1L582.94 1Q570.74 1 570.74-13.35L570.74-13.35Q570.74-20.15 574.34-23.93 577.94-27.7 582.74-27.7L582.74-27.7Q587.99-27.7 590.29-24.05 592.59-20.4 592.59-14.55L592.59-14.55Q592.09-14.15 591.54-14.1ZM582.64-25.7L582.64-25.7Q580.04-25.7 578.22-23 576.39-20.3 575.99-16.1L575.99-16.1 582.19-16.1Q585.89-16.1 587.49-16.55L587.49-16.55Q587.49-20.65 586.24-23.18 584.99-25.7 582.64-25.7ZM605.84-1.2L605.84-1.2Q608.54-1.2 609.84-2.45 611.14-3.7 611.14-5.35L611.14-5.35Q611.14-6.3 610.84-7.1 610.54-7.9 609.87-8.65 609.19-9.4 608.09-10.13 606.99-10.85 605.34-11.7L605.34-11.7Q603.29-12.75 601.82-13.7 600.34-14.65 599.39-15.7 598.44-16.75 597.97-17.95 597.49-19.15 597.49-20.65L597.49-20.65Q597.49-22.45 598.14-23.78 598.79-25.1 599.97-25.98 601.14-26.85 602.74-27.28 604.34-27.7 606.29-27.7L606.29-27.7Q610.19-27.7 613.89-25.8L613.89-25.8 613.89-19.4 611.54-19.4 610.44-24.8Q608.24-25.85 605.79-25.85L605.79-25.85Q601.69-25.85 601.69-22.5L601.69-22.5Q601.69-20.7 603.04-19.2 604.39-17.7 607.39-16.2L607.39-16.2Q609.44-15.15 610.99-14.2 612.54-13.25 613.57-12.2 614.59-11.15 615.12-9.93 615.64-8.7 615.64-7.15L615.64-7.15Q615.64-5.4 614.89-3.9 614.14-2.4 612.79-1.33 611.44-0.25 609.54 0.38 607.64 1 605.34 1L605.34 1Q600.89 1 596.99-0.9L596.99-0.9 596.99-7.3 599.34-7.3 600.44-2.35Q602.99-1.2 605.84-1.2Z" opacity="1" transform="matrix(1,0,0,1,0,0)" fill="#000000" class="wordmark-text-0" data-fill-palette-color="primary" id="text-0"></path></svg></g></svg></g></svg></g></svg></g><g><svg viewBox="0 0 99.72010577834591 91.89375853964631" height="91.89375853964631" width="99.72010577834591"><g><svg xmlns="http://www.w3.org/2000/svg" xmlns:xlink="http://www.w3.org/1999/xlink" version="1.1" x="0" y="0" viewBox="31 31.049999999999994 37.926598632371096 34.95" enable-background="new 0 0 100 100" xml:space="preserve" height="91.89375853964631" width="99.72010577834591" class="icon-icon-0" data-fill-palette-color="accent" id="icon-0"><path d="M68.6 43.8l-18-12.6c-0.3-0.2-0.8-0.2-1.1 0l-18 12.6C31.2 44 31 44.3 31 44.6v6c0 0.744 0.699 1.333 1.5 0.801l2.4-1.7V65c0 0.6 0.4 1 1 1h28c0.6 0 1-0.4 1-1V49.7l2.399 1.7c0.977 0.486 1.601-0.029 1.601-0.801v-6C69 44.3 68.8 44 68.6 43.8zM63 64H37V48.3l13-9.1 13 9.1V64zM67 48.7L50.6 37.2c-0.534-0.268-0.666-0.267-1.2 0L33 48.7v-3.6l17-11.9 17 11.9V48.7z" fill="#000000" data-fill-palette-color="accent"></path></svg></g></svg></g></svg></g><defs></defs></svg><rect width="395.52" height="72.1825281675087" fill="none" stroke="none" visibility="hidden"></rect></g></svg></g></svg>